<svg width="1244" height="432" xmlns="http://www.w3.org/2000/svg"><defs><linearGradient x1="50%" y1="0%" x2="50%" y2="151.962%" id="a"><stop stop-color="#5009C0" offset="0%"/><stop stop-color="#FF6351" offset="100%"/></linearGradient><linearGradient x1="50%" y1="0%" x2="50%" y2="100%" id="b"><stop stop-color="#FAD961" offset="0%"/><stop stop-color="#F76B1C" offset="100%"/></linearGradient><linearGradient x1="50%" y1="-70.106%" x2="50%" y2="100%" id="c"><stop stop-color="#5009C0" offset="0%"/><stop stop-color="#FF6351" offset="100%"/></linearGradient></defs><g fill="none" fill-rule="evenodd"><g transform="translate(77 73)"><rect fill="url(#a)" width="240" height="240" rx="40"/><rect fill="url(#b)" x="420" width="240" height="240" rx="40"/><text font-family="Alibaba-PuHuiTi-B, Alibaba PuHuiTi" font-size="32" font-weight="bold" fill="#FFF"><tspan x="81.5" y="132">View</tspan></text><text font-family="Alibaba-PuHuiTi-B, Alibaba PuHuiTi" font-size="32" font-weight="bold" fill="#FFF"><tspan x="453.5" y="132">ViewModel</tspan></text><path d="M406.5 113l14 7-14 7v-6h-152v6l-14-7 14-7v6h152v-6z" fill="#000" fill-rule="nonzero"/><text font-family="Alibaba-PuHuiTi-M, Alibaba PuHuiTi" font-size="24" font-weight="400" fill="#000"><tspan x="258" y="170">DataBinding</tspan></text></g><rect fill="url(#c)" x="914.5" y="73" width="240" height="240" rx="40"/><text font-family="Alibaba-PuHuiTi-B, Alibaba PuHuiTi" font-size="32" font-weight="bold" fill="#FFF"><tspan x="988.5" y="205">Model</tspan></text><path d="M902.5 132l14 7-14 7v-6.001l-167 .001v-2l167-.001V132zm-152 100v5.999l4 .001v2l-4-.001V246l-14-7 14-7zm12 6v2h-6v-2h6zm8 0v2h-6v-2h6zm8 0v2h-6v-2h6zm8 0v2h-6v-2h6zm8 0v2h-6v-2h6zm8 0v2h-6v-2h6zm8 0v2h-6v-2h6zm8 0v2h-6v-2h6zm8 0v2h-6v-2h6zm8 0v2h-6v-2h6zm8 0v2h-6v-2h6zm8 0v2h-6v-2h6zm8 0v2h-6v-2h6zm8 0v2h-6v-2h6zm8 0v2h-6v-2h6zm8 0v2h-6v-2h6zm8 0v2h-6v-2h6zm8 0v2h-6v-2h6zm8 0v2h-6v-2h6zm8 0v2h-6v-2h6z" fill="#000" fill-rule="nonzero"/><text font-family="Alibaba-PuHuiTi-M, Alibaba PuHuiTi" font-size="24" font-weight="400" fill="#000"><tspan x="213" y="362">Presentation and Presentation Logic</tspan></text><text font-family="Alibaba-PuHuiTi-M, Alibaba PuHuiTi" font-size="24" font-weight="400" fill="#000"><tspan x="900" y="362">BusinessLogic andData</tspan></text></g></svg>